<?xml version="1.0"?><svg xmlns="http://www.w3.org/2000/svg" xmlns:xlink= "http://www.w3.org/1999/xlink" style="background: white;" width="1500" height="185"> <g style="color: black; font-size: 13px; font-family: sans-serif; transform: translate(18px, 25px);"><g><circle r="3" cx="-6" cy="-5" style="fill: #B6509E" /><text>Borrow APR, variable</text></g><g style="transform: translateX(150px);"><circle r="3" cx="-6" cy="-5" style="fill: rgb(231, 198, 223)" /><text>Borrow APR, stable</text></g><g style="transform: translateX(290px);"><circle r="3" cx="-6" cy="-5" style="fill: rgb(0, 98, 210)" /><text>Utilization Rate</text></g></g><g class="visx-group" transform="translate(40, 50)"><g class="visx-group visx-rows" transform="translate(0, 0)"><line class="visx-line" x1="0" y1="115" x2="1450" y2="115" fill="transparent" shape-rendering="crispEdges" stroke="#000" stroke-width="1" stroke-dasharray="3,3" pointer-events="none"></line><line class="visx-line" x1="0" y1="89.44444444444444" x2="1450" y2="89.44444444444444" fill="transparent" shape-rendering="crispEdges" stroke="#000" stroke-width="1" stroke-dasharray="3,3" pointer-events="none"></line><line class="visx-line" x1="0" y1="63.88888888888889" x2="1450" y2="63.88888888888889" fill="transparent" shape-rendering="crispEdges" stroke="#000" stroke-width="1" stroke-dasharray="3,3" pointer-events="none"></line><line class="visx-line" x1="0" y1="38.333333333333336" x2="1450" y2="38.333333333333336" fill="transparent" shape-rendering="crispEdges" stroke="#000" stroke-width="1" stroke-dasharray="3,3" pointer-events="none"></line><line class="visx-line" x1="0" y1="12.777777777777784" x2="1450" y2="12.777777777777784" fill="transparent" shape-rendering="crispEdges" stroke="#000" stroke-width="1" stroke-dasharray="3,3" pointer-events="none"></line></g><path class="visx-linepath" d="M0,114.99999999994321C2.4166666666666665,114.99053497939074,4.833333333333334,114.98106995883828,7.25,114.97160493827161C9.666666666666666,114.96213991770495,12.083333333333334,114.95267489711934,14.5,114.94320987654321C16.916666666666668,114.93374485596708,19.333333333333332,114.92427983539095,21.75,114.91481481481482C24.166666666666668,114.90534979423869,26.583333333333332,114.89588477366254,29,114.88641975308641C31.416666666666668,114.87695473251028,33.833333333333336,114.86748971193416,36.25,114.85802469135803C38.666666666666664,114.8485596707819,41.083333333333336,114.83909465020575,43.5,114.82962962962962C45.91666666666667,114.82016460905349,48.333333333333336,114.81069958847736,50.75000000000001,114.80123456790123C53.16666666666667,114.7917695473251,55.583333333333336,114.78230452674897,58,114.77283950617284C60.416666666666664,114.76337448559671,62.833333333333336,114.75390946502057,65.25,114.74444444444444C67.66666666666667,114.73497942386831,70.08333333333333,114.72551440329218,72.5,114.71604938271605C74.91666666666667,114.70658436213992,77.33333333333333,114.69711934156378,79.75,114.68765432098765C82.16666666666667,114.67818930041152,84.58333333333333,114.66872427983539,87,114.65925925925926C89.41666666666667,114.64979423868313,91.83333333333333,114.64032921810698,94.25,114.63086419753085C96.66666666666667,114.62139917695472,99.08333333333334,114.6119341563786,101.50000000000001,114.60246913580247C103.91666666666667,114.59300411522634,106.33333333333334,114.5835390946502,108.75,114.57407407407408C111.16666666666667,114.56460905349795,113.58333333333333,114.5551440329218,116,114.54567901234567C118.41666666666667,114.53621399176954,120.83333333333334,114.52674897119341,123.25000000000001,114.51728395061728C125.66666666666667,114.50781893004115,128.08333333333334,114.49835390946501,130.5,114.48888888888888C132.91666666666666,114.47942386831275,135.33333333333334,114.46995884773662,137.75,114.46049382716049C140.16666666666666,114.45102880658436,142.58333333333334,114.44156378600822,145,114.43209876543209C147.41666666666666,114.42263374485596,149.83333333333334,114.41316872427983,152.25,114.4037037037037C154.66666666666666,114.39423868312757,157.08333333333334,114.38477366255144,159.5,114.37530864197531C161.91666666666666,114.36584362139918,164.33333333333334,114.35637860082304,166.75,114.3469135802469C169.16666666666666,114.33744855967078,171.58333333333334,114.32798353909465,174,114.31851851851852C176.41666666666666,114.30905349794239,178.83333333333334,114.29958847736626,181.25,114.29012345679013C183.66666666666666,114.280658436214,186.08333333333334,114.27119341563787,188.5,114.26172839506174C190.91666666666666,114.25226337448561,193.33333333333334,114.24279835390946,195.75,114.23333333333333C198.16666666666669,114.2238683127572,200.58333333333334,114.21440329218107,203.00000000000003,114.20493827160495C205.41666666666669,114.19547325102882,207.83333333333331,114.18600823045269,210.24999999999997,114.17654320987656C212.66666666666666,114.16707818930043,215.08333333333331,114.15761316872428,217.5,114.14814814814815C219.91666666666666,114.13868312757202,222.33333333333334,114.12921810699589,224.75,114.11975308641976C227.16666666666666,114.11028806584363,229.58333333333334,114.10082304526749,232,114.09135802469136C234.41666666666666,114.08189300411523,236.83333333333334,114.0724279835391,239.25,114.06296296296297C241.66666666666669,114.05349794238684,244.08333333333334,114.0440329218107,246.50000000000003,114.03456790123457C248.91666666666669,114.02510288065844,251.33333333333331,114.01563786008231,253.74999999999997,114.00617283950618C256.16666666666663,113.99670781893005,258.5833333333333,113.98724279835392,261,113.97777777777779C263.4166666666667,113.96831275720166,265.8333333333333,113.95884773662551,268.25,113.94938271604939C270.6666666666667,113.93991769547326,273.0833333333333,113.93045267489713,275.5,113.920987654321C277.9166666666667,113.91152263374487,280.3333333333333,113.90205761316872,282.75,113.89259259259259C285.1666666666667,113.88312757201646,287.5833333333333,113.87366255144033,290,113.8641975308642C292.4166666666667,113.85473251028807,294.8333333333333,113.84526748971193,297.25,113.8358024691358C299.6666666666667,113.82633744855967,302.0833333333333,113.81687242798354,304.5,113.80740740740741C306.9166666666667,113.79794238683128,309.3333333333333,113.78847736625515,311.75,113.77901234567902C314.1666666666667,113.76954732510289,316.5833333333333,113.76008230452675,319,113.75061728395062C321.4166666666667,113.74115226337449,323.8333333333333,113.73168724279836,326.25,113.72222222222223C328.6666666666667,113.7127572016461,331.0833333333333,113.70329218106995,333.5,113.69382716049383C335.9166666666667,113.6843621399177,338.3333333333333,113.67489711934157,340.75,113.66543209876544C343.1666666666667,113.6559670781893,345.5833333333333,113.64650205761316,348,113.63703703703703C350.4166666666667,113.6275720164609,352.8333333333333,113.61810699588477,355.25,113.60864197530864C357.6666666666667,113.59917695473251,360.0833333333333,113.58971193415637,362.5,113.58024691358024C364.9166666666667,113.57078189300411,367.3333333333333,113.56131687242798,369.75,113.55185185185185C372.1666666666667,113.54238683127572,374.5833333333333,113.53292181069959,377,113.52345679012346C379.4166666666667,113.51399176954733,381.8333333333333,113.50452674897119,384.25,113.49506172839506C386.6666666666667,113.48559670781893,389.0833333333333,113.4761316872428,391.5,113.46666666666667C393.9166666666667,113.45720164609054,396.33333333333337,113.4477366255144,398.75000000000006,113.43827160493827C401.16666666666674,113.42880658436214,403.58333333333337,113.419341563786,406.00000000000006,113.40987654320988C408.4166666666667,113.40041152263375,410.8333333333333,113.3909465020576,413.24999999999994,113.38148148148147C415.66666666666663,113.37201646090534,418.08333333333326,113.36255144032921,420.49999999999994,113.35308641975308C422.91666666666663,113.34362139917695,425.3333333333333,113.33415637860082,427.75,113.3246913580247C430.1666666666667,113.31522633744856,432.5833333333333,113.30576131687242,435,113.29629629629629C437.4166666666667,113.28683127572016,439.8333333333333,113.27736625514403,442.25,113.2679012345679C444.6666666666667,113.25843621399177,447.0833333333333,113.24897119341563,449.5,113.2395061728395C451.9166666666667,113.23004115226337,454.3333333333333,113.22057613168724,456.75,113.21111111111111C459.1666666666667,113.20164609053498,461.5833333333333,113.19218106995883,464,113.1827160493827C466.4166666666667,113.17325102880658,468.8333333333333,113.16378600823045,471.25,113.15432098765432C473.6666666666667,113.14485596707819,476.0833333333333,113.13539094650206,478.5,113.12592592592593C480.9166666666667,113.1164609053498,483.33333333333337,113.10699588477365,485.75000000000006,113.09753086419752C488.16666666666674,113.0880658436214,490.58333333333337,113.07860082304526,493.00000000000006,113.06913580246913C495.4166666666667,113.059670781893,497.8333333333333,113.05020576131686,500.24999999999994,113.04074074074073C502.66666666666663,113.0312757201646,505.08333333333326,113.02181069958847,507.49999999999994,113.01234567901234C509.91666666666663,113.00288065843621,512.3333333333333,112.99341563786007,514.75,112.98395061728394C517.1666666666666,112.97448559670781,519.5833333333334,112.96502057613168,522,112.95555555555555C524.4166666666666,112.94609053497942,526.8333333333334,112.93662551440329,529.25,112.92716049382716C531.6666666666666,112.91769547325103,534.0833333333334,112.9082304526749,536.5,112.89876543209877C538.9166666666666,112.88930041152264,541.3333333333334,112.8798353909465,543.75,112.87037037037037C546.1666666666666,112.86090534979424,548.5833333333334,112.85144032921811,551,112.84197530864198C553.4166666666666,112.83251028806585,555.8333333333334,112.82304526748972,558.25,112.81358024691359C560.6666666666666,112.80411522633746,563.0833333333334,112.79465020576131,565.5,112.78518518518518C567.9166666666666,112.77572016460906,570.3333333333334,112.76625514403293,572.75,112.7567901234568C575.1666666666666,112.74732510288067,577.5833333333334,112.73786008230454,580,112.7283950617284C582.4166666666666,112.71893004115228,584.8333333333334,112.70946502057613,587.25,112.7C589.6666666666666,112.69053497942387,592.0833333333334,112.68106995884774,594.5,112.67160493827161C596.9166666666666,112.66213991769548,599.3333333333334,112.65267489711934,601.75,112.64320987654321C604.1666666666666,112.63374485596708,606.5833333333334,112.62427983539095,609,112.61481481481482C611.4166666666666,112.60534979423869,613.8333333333334,112.59588477366255,616.25,112.58641975308642C618.6666666666666,112.57695473251029,621.0833333333334,112.56748971193416,623.5,112.55802469135803C625.9166666666666,112.5485596707819,628.3333333333334,112.53909465020577,630.75,112.52962962962964C633.1666666666666,112.52016460905351,635.5833333333334,112.51069958847737,638,112.50123456790124C640.4166666666666,112.4917695473251,642.8333333333334,112.48230452674898,645.25,112.47283950617285C647.6666666666666,112.46337448559672,650.0833333333334,112.45390946502057,652.5,112.44444444444444C654.9166666666666,112.43497942386831,657.3333333333334,112.42551440329218,659.75,112.41604938271605C662.1666666666666,112.40658436213992,664.5833333333334,112.39711934156378,667,112.38765432098765C669.4166666666666,112.37818930041152,671.8333333333334,112.36872427983539,674.25,112.35925925925926C676.6666666666666,112.34979423868313,679.0833333333334,112.340329218107,681.5,112.33086419753087C683.9166666666666,112.32139917695474,686.3333333333334,112.3119341563786,688.75,112.30246913580247C691.1666666666666,112.29300411522634,693.5833333333334,112.28353909465021,696,112.27407407407408C698.4166666666666,112.26460905349795,700.8333333333334,112.2551440329218,703.25,112.24567901234568C705.6666666666666,112.23621399176955,708.0833333333334,112.22674897119342,710.5,112.21728395061729C712.9166666666666,112.20781893004116,715.3333333333334,112.19835390946501,717.75,112.18888888888888C720.1666666666666,112.17942386831275,722.5833333333334,112.16995884773662,725,112.1604938271605C727.4166666666666,112.15102880658436,729.8333333333334,112.14156378600823,732.25,112.1320987654321C734.6666666666666,112.12263374485597,737.0833333333334,112.11316872427983,739.5,112.1037037037037C741.9166666666666,112.09423868312757,744.3333333333334,112.08477366255144,746.75,112.07530864197531C749.1666666666666,112.06584362139918,751.5833333333334,112.05637860082304,754,112.04691358024691C756.4166666666666,112.03744855967078,758.8333333333334,112.02798353909465,761.25,112.01851851851852C763.6666666666666,112.00905349794239,766.0833333333334,111.99958847736625,768.5,111.99012345679012C770.9166666666666,111.98065843621399,773.3333333333334,111.97119341563786,775.75,111.96172839506173C778.1666666666666,111.9522633744856,780.5833333333334,111.94279835390947,783,111.93333333333334C785.4166666666667,111.92386831275721,787.8333333333334,111.91440329218106,790.2500000000001,111.90493827160493C792.6666666666667,111.8954732510288,795.0833333333335,111.88600823045267,797.5000000000001,111.87654320987654C799.9166666666667,111.86707818930041,802.3333333333335,111.85761316872427,804.7500000000001,111.84814814814814C807.1666666666667,111.83868312757201,809.5833333333335,111.82921810699588,812.0000000000001,111.81975308641975C814.4166666666667,111.81028806584362,816.8333333333333,111.80082304526748,819.2499999999999,111.79135802469135C821.6666666666665,111.78189300411522,824.0833333333333,111.77242798353909,826.4999999999999,111.76296296296296C828.9166666666665,111.75349794238683,831.3333333333333,111.7440329218107,833.7499999999999,111.73456790123457C836.1666666666665,111.72510288065844,838.5833333333333,111.7156378600823,840.9999999999999,111.70617283950617C843.4166666666666,111.69670781893004,845.8333333333333,111.6872427983539,848.25,111.67777777777778C850.6666666666666,111.66831275720165,853.0833333333334,111.6588477366255,855.5,111.64938271604937C857.9166666666666,111.63991769547324,860.3333333333334,111.63045267489711,862.75,111.62098765432098C865.1666666666666,111.61152263374485,867.5833333333334,111.60205761316871,870,111.59259259259258C872.4166666666666,111.58312757201645,874.8333333333334,111.57366255144032,877.25,111.56419753086419C879.6666666666666,111.55473251028806,882.0833333333334,111.54526748971193,884.5,111.5358024691358C886.9166666666666,111.52633744855967,889.3333333333334,111.51687242798354,891.75,111.50740740740741C894.1666666666666,111.49794238683128,896.5833333333334,111.48847736625514,899,111.47901234567901C901.4166666666666,111.46954732510288,903.8333333333334,111.46008230452675,906.25,111.45061728395062C908.6666666666666,111.44115226337449,911.0833333333334,111.43168724279836,913.5,111.42222222222223C915.9166666666666,111.4127572016461,918.3333333333334,111.40329218106996,920.75,111.39382716049383C923.1666666666666,111.3843621399177,925.5833333333334,111.37489711934157,928,111.36543209876544C930.4166666666666,111.35596707818931,932.8333333333334,111.34650205761318,935.25,111.33703703703705C937.6666666666666,111.32757201646092,940.0833333333334,111.31810699588478,942.5,111.30864197530865C944.9166666666666,111.29917695473252,947.3333333333334,111.28971193415639,949.75,111.28024691358026C952.1666666666666,111.27078189300413,954.5833333333334,111.26131687242798,957,111.25185185185185C959.4166666666666,111.24238683127572,961.8333333333334,111.2329218106996,964.25,111.22345679012346C966.6666666666667,111.21399176954733,969.0833333333334,111.20452674897119,971.5000000000001,111.19506172839506C973.9166666666667,111.18559670781893,976.3333333333335,111.1761316872428,978.7500000000001,111.16666666666667C981.1666666666667,111.15720164609054,983.5833333333335,111.14773662551441,986.0000000000001,111.13827160493828C988.4166666666667,111.12880658436215,990.8333333333335,111.11934156378601,993.2500000000001,111.10987654320988C995.6666666666667,111.10041152263375,998.0833333333333,111.09094650205762,1000.4999999999999,111.08148148148149C1002.9166666666665,111.07201646090536,1005.3333333333333,111.06255144032922,1007.7499999999999,111.05308641975309C1010.1666666666665,111.04362139917696,1012.5833333333333,111.03415637860083,1014.9999999999999,111.0246913580247C1017.4166666666665,111.01522633744857,1019.8333333333333,111.00576131687242,1022.2499999999999,110.9962962962963C1024.6666666666665,110.98683127572016,1027.0833333333333,110.97736625514403,1029.5,110.9679012345679C1031.9166666666667,110.95843621399177,1034.3333333333333,110.94897119341563,1036.75,110.9395061728395C1039.1666666666667,110.93004115226337,1041.5833333333333,110.92057613168724,1044,110.91111111111111C1046.4166666666667,110.90164609053498,1048.8333333333333,110.89218106995885,1051.25,110.88271604938272C1053.6666666666667,110.87325102880659,1056.0833333333333,110.86378600823045,1058.5,110.85432098765432C1060.9166666666667,110.84485596707819,1063.3333333333333,110.83539094650206,1065.75,110.82592592592593C1068.1666666666667,110.8164609053498,1070.5833333333333,110.80699588477366,1073,110.79753086419753C1075.4166666666667,110.7880658436214,1077.8333333333333,110.77860082304527,1080.25,110.76913580246914C1082.6666666666667,110.759670781893,1085.0833333333333,110.75020576131686,1087.5,110.74074074074073C1089.9166666666667,110.7312757201646,1092.3333333333333,110.72181069958847,1094.75,110.71234567901234C1097.1666666666667,110.70288065843621,1099.5833333333333,110.69341563786008,1102,110.68395061728395C1104.4166666666667,110.67448559670783,1106.8333333333333,110.66502057613168,1109.25,110.65555555555555C1111.6666666666667,110.64609053497942,1114.0833333333333,110.63662551440329,1116.5,110.62716049382716C1118.9166666666667,110.61769547325103,1121.3333333333333,110.60823045267489,1123.75,110.59876543209876C1126.1666666666667,110.58930041152263,1128.5833333333333,110.5798353909465,1131,110.57037037037037C1133.4166666666667,110.56090534979424,1135.8333333333333,110.55144032921811,1138.25,110.54197530864198C1140.6666666666667,110.53251028806585,1143.0833333333333,110.5230452674897,1145.5,110.51358024691358C1147.9166666666667,110.50411522633745,1150.3333333333333,110.49465020576132,1152.75,110.48518518518519C1155.1666666666667,110.47572016460906,1157.5833333333333,110.46625514403291,1160,110.45679012345678C1162.4166666666667,110.44732510288065,1164.8333333333333,110.43786008230452,1167.25,110.4283950617284C1169.6666666666667,110.41893004115227,1172.0833333333333,110.40946502057612,1174.5,110.39999999999999C1176.9166666666667,110.39053497942386,1179.3333333333333,110.38106995884773,1181.75,110.3716049382716C1184.1666666666667,110.36213991769547,1186.5833333333333,110.35267489711933,1189,110.3432098765432C1191.4166666666667,110.33374485596707,1193.8333333333333,110.32427983539094,1196.25,110.31481481481481C1198.6666666666667,110.30534979423868,1201.0833333333333,110.29588477366255,1203.5,110.28641975308642C1205.9166666666667,110.27695473251029,1208.3333333333333,110.26748971193415,1210.75,110.25802469135802C1213.1666666666667,110.24855967078189,1215.5833333333333,110.23909465020576,1218,110.22962962962963C1220.4166666666667,110.2201646090535,1222.8333333333333,110.21069958847735,1225.25,110.20123456790122C1227.6666666666667,110.1917695473251,1230.0833333333333,110.18230452674896,1232.5,110.17283950617283C1234.9166666666667,110.1633744855967,1237.3333333333333,110.15390946502058,1239.75,110.14444444444445C1242.1666666666667,110.13497942386832,1244.5833333333333,110.12551440329217,1247,110.11604938271604C1249.4166666666667,110.10658436213991,1251.8333333333333,110.09711934156378,1254.25,110.08765432098765C1256.6666666666667,110.07818930041152,1259.0833333333333,110.0687242798354,1261.5,110.05925925925926C1263.9166666666667,110.04979423868313,1266.3333333333333,110.040329218107,1268.75,110.03086419753087C1271.1666666666667,110.02139917695474,1273.5833333333333,110.0119341563786,1276,110.00246913580247C1278.4166666666667,109.99300411522634,1280.8333333333333,109.98353909465021,1283.25,109.97407407407408C1285.6666666666667,109.96460905349795,1288.0833333333333,109.95514403292181,1290.5,109.94567901234568C1292.9166666666667,109.93621399176955,1295.3333333333333,109.92674897119342,1297.75,109.91728395061729C1300.1666666666667,109.90781893004116,1302.5833333333333,109.90781893004116,1305,109.8888888888889C1307.4166666666667,109.86995884773664,1309.8333333333333,106.69444444444444,1312.25,105.09722222222221C1314.6666666666667,103.49999999999999,1317.0833333333333,101.90277777777777,1319.5,100.30555555555556C1321.9166666666667,98.70833333333334,1324.3333333333333,97.11111111111111,1326.75,95.51388888888889C1329.1666666666667,93.91666666666666,1331.5833333333333,92.31944444444443,1334,90.72222222222221C1336.4166666666667,89.125,1338.8333333333333,87.52777777777777,1341.25,85.93055555555556C1343.6666666666667,84.33333333333334,1346.0833333333333,82.73611111111111,1348.5,81.13888888888889C1350.9166666666667,79.54166666666666,1353.3333333333333,77.94444444444443,1355.75,76.34722222222221C1358.1666666666667,74.75,1360.5833333333333,73.15277777777777,1363,71.55555555555556C1365.4166666666667,69.95833333333334,1367.8333333333333,68.36111111111111,1370.25,66.76388888888889C1372.6666666666667,65.16666666666666,1375.0833333333333,63.56944444444444,1377.5,61.97222222222222C1379.9166666666667,60.375,1382.3333333333333,58.77777777777778,1384.75,57.18055555555556C1387.1666666666667,55.583333333333336,1389.5833333333333,53.986111111111114,1392,52.38888888888889C1394.4166666666667,50.79166666666667,1396.8333333333333,49.19444444444444,1399.25,47.59722222222222C1401.6666666666667,46,1404.0833333333333,44.40277777777779,1406.5,42.80555555555557C1408.9166666666667,41.20833333333335,1411.3333333333333,39.611111111111114,1413.75,38.01388888888889C1416.1666666666667,36.41666666666667,1418.5833333333333,34.81944444444444,1421,33.22222222222222C1423.4166666666667,31.625,1425.8333333333333,30.02777777777778,1428.25,28.430555555555557C1430.6666666666667,26.833333333333336,1433.0833333333333,25.236111111111114,1435.5,23.638888888888893C1437.9166666666667,22.04166666666667,1440.3333333333333,20.44444444444444,1442.75,18.847222222222218C1445.1666666666667,17.249999999999996,1447.5833333333333,15.652777777777777,1450,14.055555555555557" fill="transparent" stroke-linecap="round" stroke="#B6509E" stroke-width="2"></path><path class="visx-linepath" d="M0,108.61111111110401C2.4166666666666665,108.60992798353494,4.833333333333334,108.60874485596588,7.25,108.60756172839505C9.666666666666666,108.60637860082423,12.083333333333334,108.60519547325103,14.5,108.60401234567901C16.916666666666668,108.60282921810699,19.333333333333332,108.60164609053498,21.75,108.60046296296296C24.166666666666668,108.59927983539094,26.583333333333332,108.59809670781894,29,108.59691358024692C31.416666666666668,108.5957304526749,33.833333333333336,108.59454732510288,36.25,108.59336419753086C38.666666666666664,108.59218106995884,41.083333333333336,108.59099794238684,43.5,108.58981481481482C45.91666666666667,108.5886316872428,48.333333333333336,108.58744855967079,50.75000000000001,108.58626543209877C53.16666666666667,108.58508230452675,55.583333333333336,108.58389917695474,58,108.58271604938273C60.416666666666664,108.5815329218107,62.833333333333336,108.58034979423869,65.25,108.57916666666667C67.66666666666667,108.57798353909465,70.08333333333333,108.57680041152263,72.5,108.5756172839506C74.91666666666667,108.57443415637859,77.33333333333333,108.57325102880658,79.75,108.57206790123456C82.16666666666667,108.57088477366254,84.58333333333333,108.56970164609054,87,108.56851851851852C89.41666666666667,108.5673353909465,91.83333333333333,108.56615226337449,94.25,108.56496913580247C96.66666666666667,108.56378600823045,99.08333333333334,108.56260288065845,101.50000000000001,108.56141975308643C103.91666666666667,108.5602366255144,106.33333333333334,108.5590534979424,108.75,108.55787037037038C111.16666666666667,108.55668724279836,113.58333333333333,108.55550411522634,116,108.55432098765432C118.41666666666667,108.5531378600823,120.83333333333334,108.55195473251028,123.25000000000001,108.55077160493826C125.66666666666667,108.54958847736624,128.08333333333334,108.54840534979424,130.5,108.54722222222222C132.91666666666666,108.5460390946502,135.33333333333334,108.54485596707819,137.75,108.54367283950617C140.16666666666666,108.54248971193415,142.58333333333334,108.54130658436215,145,108.54012345679013C147.41666666666666,108.53894032921811,149.83333333333334,108.53775720164609,152.25,108.53657407407407C154.66666666666666,108.53539094650205,157.08333333333334,108.53420781893004,159.5,108.53302469135802C161.91666666666666,108.531841563786,164.33333333333334,108.530658436214,166.75,108.52947530864198C169.16666666666666,108.52829218106996,171.58333333333334,108.52710905349795,174,108.52592592592593C176.41666666666666,108.52474279835391,178.83333333333334,108.52355967078189,181.25,108.52237654320987C183.66666666666666,108.52119341563785,186.08333333333334,108.52001028806585,188.5,108.51882716049383C190.91666666666666,108.51764403292181,193.33333333333334,108.51646090534979,195.75,108.51527777777777C198.16666666666669,108.51409465020575,200.58333333333334,108.51291152263374,203.00000000000003,108.51172839506172C205.41666666666669,108.5105452674897,207.83333333333331,108.5093621399177,210.24999999999997,108.50817901234568C212.66666666666666,108.50699588477366,215.08333333333331,108.50581275720165,217.5,108.50462962962963C219.91666666666666,108.50344650205761,222.33333333333334,108.50226337448561,224.75,108.50108024691359C227.16666666666666,108.49989711934157,229.58333333333334,108.49871399176956,232,108.49753086419754C234.41666666666666,108.49634773662552,236.83333333333334,108.4951646090535,239.25,108.49398148148148C241.66666666666669,108.49279835390946,244.08333333333334,108.49161522633744,246.50000000000003,108.49043209876542C248.91666666666669,108.4892489711934,251.33333333333331,108.4880658436214,253.74999999999997,108.48688271604938C256.16666666666663,108.48569958847736,258.5833333333333,108.48451646090535,261,108.48333333333333C263.4166666666667,108.48215020576131,265.8333333333333,108.48096707818931,268.25,108.47978395061729C270.6666666666667,108.47860082304527,273.0833333333333,108.47741769547325,275.5,108.47623456790123C277.9166666666667,108.47505144032921,280.3333333333333,108.4738683127572,282.75,108.47268518518518C285.1666666666667,108.47150205761316,287.5833333333333,108.47031893004116,290,108.46913580246914C292.4166666666667,108.46795267489712,294.8333333333333,108.46676954732511,297.25,108.4655864197531C299.6666666666667,108.46440329218107,302.0833333333333,108.46322016460906,304.5,108.46203703703704C306.9166666666667,108.46085390946502,309.3333333333333,108.45967078189301,311.75,108.45848765432099C314.1666666666667,108.45730452674897,316.5833333333333,108.45612139917695,319,108.45493827160493C321.4166666666667,108.45375514403291,323.8333333333333,108.4525720164609,326.25,108.45138888888889C328.6666666666667,108.45020576131687,331.0833333333333,108.44902263374486,333.5,108.44783950617284C335.9166666666667,108.44665637860082,338.3333333333333,108.44547325102882,340.75,108.4442901234568C343.1666666666667,108.44310699588478,345.5833333333333,108.44192386831277,348,108.44074074074075C350.4166666666667,108.43955761316873,352.8333333333333,108.43837448559671,355.25,108.43719135802469C357.6666666666667,108.43600823045267,360.0833333333333,108.43482510288065,362.5,108.43364197530863C364.9166666666667,108.43245884773661,367.3333333333333,108.4312757201646,369.75,108.43009259259259C372.1666666666667,108.42890946502057,374.5833333333333,108.42772633744856,377,108.42654320987654C379.4166666666667,108.42536008230452,381.8333333333333,108.42417695473252,384.25,108.4229938271605C386.6666666666667,108.42181069958848,389.0833333333333,108.42062757201647,391.5,108.41944444444445C393.9166666666667,108.41826131687243,396.33333333333337,108.41707818930041,398.75000000000006,108.41589506172839C401.16666666666674,108.41471193415637,403.58333333333337,108.41352880658437,406.00000000000006,108.41234567901235C408.4166666666667,108.41116255144033,410.8333333333333,108.40997942386832,413.24999999999994,108.4087962962963C415.66666666666663,108.40761316872428,418.08333333333326,108.40643004115226,420.49999999999994,108.40524691358024C422.91666666666663,108.40406378600822,425.3333333333333,108.40288065843622,427.75,108.4016975308642C430.1666666666667,108.40051440329218,432.5833333333333,108.39933127572016,435,108.39814814814814C437.4166666666667,108.39696502057612,439.8333333333333,108.39578189300411,442.25,108.3945987654321C444.6666666666667,108.39341563786007,447.0833333333333,108.39223251028807,449.5,108.39104938271605C451.9166666666667,108.38986625514403,454.3333333333333,108.38868312757202,456.75,108.3875C459.1666666666667,108.38631687242798,461.5833333333333,108.38513374485598,464,108.38395061728396C466.4166666666667,108.38276748971194,468.8333333333333,108.38158436213993,471.25,108.38040123456791C473.6666666666667,108.37921810699589,476.0833333333333,108.37803497942387,478.5,108.37685185185185C480.9166666666667,108.37566872427983,483.33333333333337,108.37448559670781,485.75000000000006,108.3733024691358C488.16666666666674,108.37211934156377,490.58333333333337,108.37093621399177,493.00000000000006,108.36975308641975C495.4166666666667,108.36856995884773,497.8333333333333,108.36738683127572,500.24999999999994,108.3662037037037C502.66666666666663,108.36502057613168,505.08333333333326,108.36383744855968,507.49999999999994,108.36265432098766C509.91666666666663,108.36147119341564,512.3333333333333,108.36028806584362,514.75,108.3591049382716C517.1666666666666,108.35792181069958,519.5833333333334,108.35673868312757,522,108.35555555555555C524.4166666666666,108.35437242798353,526.8333333333334,108.35318930041153,529.25,108.35200617283951C531.6666666666666,108.35082304526749,534.0833333333334,108.34963991769547,536.5,108.34845679012345C538.9166666666666,108.34727366255143,541.3333333333334,108.34609053497942,543.75,108.3449074074074C546.1666666666666,108.34372427983539,548.5833333333334,108.34254115226338,551,108.34135802469136C553.4166666666666,108.34017489711934,555.8333333333334,108.33899176954732,558.25,108.3378086419753C560.6666666666666,108.33662551440328,563.0833333333334,108.33544238683128,565.5,108.33425925925926C567.9166666666666,108.33307613168724,570.3333333333334,108.33189300411523,572.75,108.33070987654321C575.1666666666666,108.32952674897119,577.5833333333334,108.32834362139918,580,108.32716049382717C582.4166666666666,108.32597736625515,584.8333333333334,108.32479423868314,587.25,108.32361111111112C589.6666666666666,108.3224279835391,592.0833333333334,108.32124485596708,594.5,108.32006172839506C596.9166666666666,108.31887860082304,599.3333333333334,108.31769547325102,601.75,108.316512345679C604.1666666666666,108.31532921810698,606.5833333333334,108.31414609053498,609,108.31296296296296C611.4166666666666,108.31177983539094,613.8333333333334,108.31059670781893,616.25,108.30941358024691C618.6666666666666,108.30823045267489,621.0833333333334,108.30704732510289,623.5,108.30586419753087C625.9166666666666,108.30468106995885,628.3333333333334,108.30349794238684,630.75,108.30231481481482C633.1666666666666,108.3011316872428,635.5833333333334,108.29994855967078,638,108.29876543209876C640.4166666666666,108.29758230452674,642.8333333333334,108.29639917695474,645.25,108.29521604938272C647.6666666666666,108.2940329218107,650.0833333333334,108.29284979423869,652.5,108.29166666666667C654.9166666666666,108.29048353909465,657.3333333333334,108.28930041152263,659.75,108.28811728395061C662.1666666666666,108.28693415637859,664.5833333333334,108.28575102880659,667,108.28456790123457C669.4166666666666,108.28338477366255,671.8333333333334,108.28220164609054,674.25,108.28101851851852C676.6666666666666,108.2798353909465,679.0833333333334,108.27865226337448,681.5,108.27746913580246C683.9166666666666,108.27628600823044,686.3333333333334,108.27510288065844,688.75,108.27391975308642C691.1666666666666,108.2727366255144,693.5833333333334,108.27155349794239,696,108.27037037037037C698.4166666666666,108.26918724279835,700.8333333333334,108.26800411522635,703.25,108.26682098765433C705.6666666666666,108.26563786008231,708.0833333333334,108.2644547325103,710.5,108.26327160493828C712.9166666666666,108.26208847736626,715.3333333333334,108.26090534979424,717.75,108.25972222222222C720.1666666666666,108.2585390946502,722.5833333333334,108.25735596707818,725,108.25617283950616C727.4166666666666,108.25498971193414,729.8333333333334,108.25380658436214,732.25,108.25262345679012C734.6666666666666,108.2514403292181,737.0833333333334,108.2502572016461,739.5,108.24907407407407C741.9166666666666,108.24789094650205,744.3333333333334,108.24670781893005,746.75,108.24552469135803C749.1666666666666,108.24434156378601,751.5833333333334,108.243158436214,754,108.24197530864198C756.4166666666666,108.24079218106996,758.8333333333334,108.23960905349794,761.25,108.23842592592592C763.6666666666666,108.2372427983539,766.0833333333334,108.2360596707819,768.5,108.23487654320988C770.9166666666666,108.23369341563786,773.3333333333334,108.23251028806584,775.75,108.23132716049382C778.1666666666666,108.2301440329218,780.5833333333334,108.2289609053498,783,108.22777777777777C785.4166666666667,108.22659465020575,787.8333333333334,108.22541152263375,790.2500000000001,108.22422839506173C792.6666666666667,108.22304526748971,795.0833333333335,108.2218621399177,797.5000000000001,108.22067901234568C799.9166666666667,108.21949588477366,802.3333333333335,108.21831275720164,804.7500000000001,108.21712962962962C807.1666666666667,108.2159465020576,809.5833333333335,108.2147633744856,812.0000000000001,108.21358024691358C814.4166666666667,108.21239711934156,816.8333333333333,108.21121399176955,819.2499999999999,108.21003086419753C821.6666666666665,108.20884773662551,824.0833333333333,108.20766460905351,826.4999999999999,108.20648148148149C828.9166666666665,108.20529835390947,831.3333333333333,108.20411522633745,833.7499999999999,108.20293209876543C836.1666666666665,108.20174897119341,838.5833333333333,108.2005658436214,840.9999999999999,108.19938271604939C843.4166666666666,108.19819958847737,845.8333333333333,108.19701646090535,848.25,108.19583333333333C850.6666666666666,108.1946502057613,853.0833333333334,108.1934670781893,855.5,108.19228395061728C857.9166666666666,108.19110082304526,860.3333333333334,108.18991769547326,862.75,108.18873456790124C865.1666666666666,108.18755144032922,867.5833333333334,108.18636831275721,870,108.18518518518519C872.4166666666666,108.18400205761317,874.8333333333334,108.18281893004117,877.25,108.18163580246915C879.6666666666666,108.18045267489713,882.0833333333334,108.1792695473251,884.5,108.17808641975309C886.9166666666666,108.17690329218107,889.3333333333334,108.17572016460906,891.75,108.17453703703704C894.1666666666666,108.17335390946502,896.5833333333334,108.172170781893,899,108.17098765432098C901.4166666666666,108.16980452674896,903.8333333333334,108.16862139917696,906.25,108.16743827160494C908.6666666666666,108.16625514403292,911.0833333333334,108.16507201646091,913.5,108.16388888888889C915.9166666666666,108.16270576131687,918.3333333333334,108.16152263374487,920.75,108.16033950617285C923.1666666666666,108.15915637860083,925.5833333333334,108.1579732510288,928,108.15679012345679C930.4166666666666,108.15560699588477,932.8333333333334,108.15442386831276,935.25,108.15324074074074C937.6666666666666,108.15205761316872,940.0833333333334,108.15087448559672,942.5,108.1496913580247C944.9166666666666,108.14850823045268,947.3333333333334,108.14732510288066,949.75,108.14614197530864C952.1666666666666,108.14495884773662,954.5833333333334,108.14377572016461,957,108.14259259259259C959.4166666666666,108.14140946502057,961.8333333333334,108.14022633744855,964.25,108.13904320987653C966.6666666666667,108.13786008230451,969.0833333333334,108.13667695473251,971.5000000000001,108.13549382716049C973.9166666666667,108.13431069958847,976.3333333333335,108.13312757201646,978.7500000000001,108.13194444444444C981.1666666666667,108.13076131687242,983.5833333333335,108.12957818930042,986.0000000000001,108.1283950617284C988.4166666666667,108.12721193415638,990.8333333333335,108.12602880658437,993.2500000000001,108.12484567901235C995.6666666666667,108.12366255144033,998.0833333333333,108.12247942386833,1000.4999999999999,108.12129629629631C1002.9166666666665,108.12011316872429,1005.3333333333333,108.11893004115227,1007.7499999999999,108.11774691358025C1010.1666666666665,108.11656378600823,1012.5833333333333,108.11538065843621,1014.9999999999999,108.11419753086419C1017.4166666666665,108.11301440329217,1019.8333333333333,108.11183127572016,1022.2499999999999,108.11064814814814C1024.6666666666665,108.10946502057612,1027.0833333333333,108.10828189300412,1029.5,108.1070987654321C1031.9166666666667,108.10591563786008,1034.3333333333333,108.10473251028807,1036.75,108.10354938271605C1039.1666666666667,108.10236625514403,1041.5833333333333,108.10118312757201,1044,108.1C1046.4166666666667,108.09881687242797,1048.8333333333333,108.09763374485597,1051.25,108.09645061728395C1053.6666666666667,108.09526748971193,1056.0833333333333,108.09408436213992,1058.5,108.0929012345679C1060.9166666666667,108.09171810699588,1063.3333333333333,108.09053497942388,1065.75,108.08935185185186C1068.1666666666667,108.08816872427984,1070.5833333333333,108.08698559670782,1073,108.0858024691358C1075.4166666666667,108.08461934156378,1077.8333333333333,108.08343621399177,1080.25,108.08225308641975C1082.6666666666667,108.08106995884773,1085.0833333333333,108.07988683127572,1087.5,108.0787037037037C1089.9166666666667,108.07752057613168,1092.3333333333333,108.07633744855967,1094.75,108.07515432098765C1097.1666666666667,108.07397119341563,1099.5833333333333,108.07278806584362,1102,108.0716049382716C1104.4166666666667,108.07042181069959,1106.8333333333333,108.06923868312758,1109.25,108.06805555555556C1111.6666666666667,108.06687242798354,1114.0833333333333,108.06568930041153,1116.5,108.06450617283951C1118.9166666666667,108.0633230452675,1121.3333333333333,108.06213991769548,1123.75,108.06095679012346C1126.1666666666667,108.05977366255144,1128.5833333333333,108.05859053497942,1131,108.0574074074074C1133.4166666666667,108.05622427983538,1135.8333333333333,108.05504115226337,1138.25,108.05385802469135C1140.6666666666667,108.05267489711933,1143.0833333333333,108.05149176954733,1145.5,108.0503086419753C1147.9166666666667,108.04912551440329,1150.3333333333333,108.04794238683128,1152.75,108.04675925925926C1155.1666666666667,108.04557613168724,1157.5833333333333,108.04439300411524,1160,108.04320987654322C1162.4166666666667,108.0420267489712,1164.8333333333333,108.04084362139918,1167.25,108.03966049382716C1169.6666666666667,108.03847736625514,1172.0833333333333,108.03729423868313,1174.5,108.03611111111111C1176.9166666666667,108.03492798353909,1179.3333333333333,108.03374485596709,1181.75,108.03256172839507C1184.1666666666667,108.03137860082305,1186.5833333333333,108.03019547325103,1189,108.029012345679C1191.4166666666667,108.02782921810699,1193.8333333333333,108.02664609053498,1196.25,108.02546296296296C1198.6666666666667,108.02427983539094,1201.0833333333333,108.02309670781894,1203.5,108.02191358024692C1205.9166666666667,108.0207304526749,1208.3333333333333,108.01954732510288,1210.75,108.01836419753086C1213.1666666666667,108.01718106995884,1215.5833333333333,108.01599794238683,1218,108.01481481481481C1220.4166666666667,108.01363168724279,1222.8333333333333,108.01244855967079,1225.25,108.01126543209877C1227.6666666666667,108.01008230452675,1230.0833333333333,108.00889917695474,1232.5,108.00771604938272C1234.9166666666667,108.0065329218107,1237.3333333333333,108.0053497942387,1239.75,108.00416666666668C1242.1666666666667,108.00298353909466,1244.5833333333333,108.00180041152264,1247,108.00061728395062C1249.4166666666667,107.9994341563786,1251.8333333333333,107.99825102880658,1254.25,107.99706790123456C1256.6666666666667,107.99588477366254,1259.0833333333333,107.99470164609053,1261.5,107.99351851851851C1263.9166666666667,107.9923353909465,1266.3333333333333,107.99115226337449,1268.75,107.98996913580247C1271.1666666666667,107.98878600823045,1273.5833333333333,107.98760288065844,1276,107.98641975308642C1278.4166666666667,107.9852366255144,1280.8333333333333,107.9840534979424,1283.25,107.98287037037038C1285.6666666666667,107.98168724279836,1288.0833333333333,107.98050411522634,1290.5,107.97932098765432C1292.9166666666667,107.9781378600823,1295.3333333333333,107.9769547325103,1297.75,107.97577160493827C1300.1666666666667,107.97458847736625,1302.5833333333333,107.97458847736625,1305,107.97222222222223C1307.4166666666667,107.9698559670782,1309.8333333333333,104.77777777777777,1312.25,103.18055555555556C1314.6666666666667,101.58333333333334,1317.0833333333333,99.98611111111111,1319.5,98.3888888888889C1321.9166666666667,96.79166666666669,1324.3333333333333,95.19444444444446,1326.75,93.59722222222223C1329.1666666666667,92,1331.5833333333333,90.40277777777777,1334,88.80555555555556C1336.4166666666667,87.20833333333334,1338.8333333333333,85.61111111111111,1341.25,84.0138888888889C1343.6666666666667,82.41666666666669,1346.0833333333333,80.81944444444446,1348.5,79.22222222222223C1350.9166666666667,77.625,1353.3333333333333,76.02777777777777,1355.75,74.43055555555554C1358.1666666666667,72.83333333333331,1360.5833333333333,71.23611111111111,1363,69.6388888888889C1365.4166666666667,68.04166666666669,1367.8333333333333,66.44444444444446,1370.25,64.84722222222223C1372.6666666666667,63.25,1375.0833333333333,61.652777777777764,1377.5,60.05555555555554C1379.9166666666667,58.45833333333332,1382.3333333333333,56.86111111111111,1384.75,55.263888888888886C1387.1666666666667,53.666666666666664,1389.5833333333333,52.06944444444444,1392,50.47222222222222C1394.4166666666667,48.875,1396.8333333333333,47.27777777777778,1399.25,45.68055555555556C1401.6666666666667,44.083333333333336,1404.0833333333333,42.48611111111112,1406.5,40.8888888888889C1408.9166666666667,39.29166666666668,1411.3333333333333,37.69444444444443,1413.75,36.09722222222221C1416.1666666666667,34.499999999999986,1418.5833333333333,32.90277777777778,1421,31.30555555555556C1423.4166666666667,29.70833333333334,1425.8333333333333,28.111111111111107,1428.25,26.513888888888886C1430.6666666666667,24.916666666666664,1433.0833333333333,23.319444444444443,1435.5,21.72222222222222C1437.9166666666667,20.125,1440.3333333333333,18.527777777777782,1442.75,16.93055555555556C1445.1666666666667,15.333333333333337,1447.5833333333333,13.73611111111111,1450,12.138888888888884" fill="transparent" stroke-linecap="round" stroke="#E7C6DF" stroke-width="2"></path><g class="visx-group visx-axis visx-axis-bottom" transform="translate(0, 115)"><g class="visx-group visx-axis-tick" transform="translate(0, 0)"><line class="visx-line" x1="0" y1="0" x2="0" y2="8" fill="transparent" shape-rendering="crispEdges" stroke="#000" stroke-width="0" stroke-linecap="square"></line><svg x="0" y="0" font-size="10" style="overflow:visible"><text transform="" x="0" y="18" fill="#000" font-size="10" text-anchor="middle"><tspan x="0" dy="0em">0%</tspan></text></svg></g><g class="visx-group visx-axis-tick" transform="translate(0, 0)"><line class="visx-line" x1="362.5" y1="0" x2="362.5" y2="8" fill="transparent" shape-rendering="crispEdges" stroke="#000" stroke-width="0" stroke-linecap="square"></line><svg x="0" y="0" font-size="10" style="overflow:visible"><text transform="" x="362.5" y="18" fill="#000" font-size="10" text-anchor="middle"><tspan x="362.5" dy="0em">25%</tspan></text></svg></g><g class="visx-group visx-axis-tick" transform="translate(0, 0)"><line class="visx-line" x1="725" y1="0" x2="725" y2="8" fill="transparent" shape-rendering="crispEdges" stroke="#000" stroke-width="0" stroke-linecap="square"></line><svg x="0" y="0" font-size="10" style="overflow:visible"><text transform="" x="725" y="18" fill="#000" font-size="10" text-anchor="middle"><tspan x="725" dy="0em">50%</tspan></text></svg></g><g class="visx-group visx-axis-tick" transform="translate(0, 0)"><line class="visx-line" x1="1087.5" y1="0" x2="1087.5" y2="8" fill="transparent" shape-rendering="crispEdges" stroke="#000" stroke-width="0" stroke-linecap="square"></line><svg x="0" y="0" font-size="10" style="overflow:visible"><text transform="" x="1087.5" y="18" fill="#000" font-size="10" text-anchor="middle"><tspan x="1087.5" dy="0em">75%</tspan></text></svg></g><g class="visx-group visx-axis-tick" transform="translate(0, 0)"><line class="visx-line" x1="1450" y1="0" x2="1450" y2="8" fill="transparent" shape-rendering="crispEdges" stroke="#000" stroke-width="0" stroke-linecap="square"></line><svg x="0" y="0" font-size="10" style="overflow:visible"><text transform="" x="1450" y="18" fill="#000" font-size="10" text-anchor="middle"><tspan x="1450" dy="0em">100%</tspan></text></svg></g><line class="visx-line visx-axis-line" x1="0.5" y1="0" x2="1450.5" y2="0" fill="transparent" shape-rendering="crispEdges" stroke="#222" stroke-width="0"></line></g><g class="visx-group visx-axis visx-axis-left" transform="translate(0, 0)"><g class="visx-group visx-axis-tick" transform="translate(0, 0)"><line class="visx-line" x1="0" y1="115" x2="-8" y2="115" fill="transparent" shape-rendering="crispEdges" stroke="#222" stroke-width="0" stroke-linecap="square"></line><svg x="-30" y="0" font-size="8" style="overflow:visible"><text transform="" x="-8" y="115" fill="#000" font-size="8" text-anchor="start"><tspan x="-8" dy="0em">0%</tspan></text></svg></g><g class="visx-group visx-axis-tick" transform="translate(0, 0)"><line class="visx-line" x1="0" y1="51.11111111111111" x2="-8" y2="51.11111111111111" fill="transparent" shape-rendering="crispEdges" stroke="#222" stroke-width="0" stroke-linecap="square"></line><svg x="-30" y="0" font-size="8" style="overflow:visible"><text transform="" x="-8" y="51.11111111111111" fill="#000" font-size="8" text-anchor="start"><tspan x="-8" dy="0em">50%</tspan></text></svg></g><line class="visx-line visx-axis-line" x1="0" y1="115.5" x2="0" y2="0.5" fill="transparent" shape-rendering="crispEdges" stroke="#222" stroke-width="0"></line></g><rect class="visx-bar" width="1450" height="115" fill="transparent"></rect><line class="visx-line" x1="1305" y1="28" x2="1305" y2="115" fill="transparent" shape-rendering="crispEdges" stroke="#0062D2" stroke-width="1" pointer-events="none" stroke-dasharray="5,2"></line><svg x="0" y="0" font-size="10px" style="overflow:visible"><text transform="" x="1305" y="20" font-size="10px" fill="#fff" stroke="#fff" stroke-width="0.8em" text-anchor="middle"><tspan x="1305" dy="0.355em">Optimal 90%</tspan></text></svg><svg x="0" y="0" font-size="10px" style="overflow:visible"><text transform="" x="1305" y="20" font-size="10px" fill="#62677B" text-anchor="middle"><tspan x="1305" dy="0.355em">Optimal 90%</tspan></text></svg></g></svg>