<?xml version="1.0"?><svg xmlns="http://www.w3.org/2000/svg" xmlns:xlink= "http://www.w3.org/1999/xlink" style="background: white;" width="1500" height="185"> <g style="color: black; font-size: 13px; font-family: sans-serif; transform: translate(18px, 25px);"><g><circle r="3" cx="-6" cy="-5" style="fill: #B6509E" /><text>Borrow APR, variable</text></g><g style="transform: translateX(150px);"><circle r="3" cx="-6" cy="-5" style="fill: rgb(231, 198, 223)" /><text>Borrow APR, stable</text></g><g style="transform: translateX(290px);"><circle r="3" cx="-6" cy="-5" style="fill: rgb(0, 98, 210)" /><text>Utilization Rate</text></g></g><g class="visx-group" transform="translate(40, 50)"><g class="visx-group visx-rows" transform="translate(0, 0)"><line class="visx-line" x1="0" y1="115" x2="1450" y2="115" fill="transparent" shape-rendering="crispEdges" stroke="#000" stroke-width="1" stroke-dasharray="3,3" pointer-events="none"></line><line class="visx-line" x1="0" y1="89.44444444444444" x2="1450" y2="89.44444444444444" fill="transparent" shape-rendering="crispEdges" stroke="#000" stroke-width="1" stroke-dasharray="3,3" pointer-events="none"></line><line class="visx-line" x1="0" y1="63.88888888888889" x2="1450" y2="63.88888888888889" fill="transparent" shape-rendering="crispEdges" stroke="#000" stroke-width="1" stroke-dasharray="3,3" pointer-events="none"></line><line class="visx-line" x1="0" y1="38.333333333333336" x2="1450" y2="38.333333333333336" fill="transparent" shape-rendering="crispEdges" stroke="#000" stroke-width="1" stroke-dasharray="3,3" pointer-events="none"></line><line class="visx-line" x1="0" y1="12.777777777777784" x2="1450" y2="12.777777777777784" fill="transparent" shape-rendering="crispEdges" stroke="#000" stroke-width="1" stroke-dasharray="3,3" pointer-events="none"></line></g><path class="visx-linepath" d="M0,115C2.4166666666666665,115,4.833333333333334,115,7.25,115C9.666666666666666,115,12.083333333333334,115,14.5,115C16.916666666666668,115,19.333333333333332,115,21.75,115C24.166666666666668,115,26.583333333333332,115,29,115C31.416666666666668,115,33.833333333333336,115,36.25,115C38.666666666666664,115,41.083333333333336,115,43.5,115C45.91666666666667,115,48.333333333333336,115,50.75000000000001,115C53.16666666666667,115,55.583333333333336,115,58,115C60.416666666666664,115,62.833333333333336,115,65.25,115C67.66666666666667,115,70.08333333333333,115,72.5,115C74.91666666666667,115,77.33333333333333,115,79.75,115C82.16666666666667,115,84.58333333333333,115,87,115C89.41666666666667,115,91.83333333333333,115,94.25,115C96.66666666666667,115,99.08333333333334,115,101.50000000000001,115C103.91666666666667,115,106.33333333333334,115,108.75,115C111.16666666666667,115,113.58333333333333,115,116,115C118.41666666666667,115,120.83333333333334,115,123.25000000000001,115C125.66666666666667,115,128.08333333333334,115,130.5,115C132.91666666666666,115,135.33333333333334,115,137.75,115C140.16666666666666,115,142.58333333333334,115,145,115C147.41666666666666,115,149.83333333333334,115,152.25,115C154.66666666666666,115,157.08333333333334,115,159.5,115C161.91666666666666,115,164.33333333333334,115,166.75,115C169.16666666666666,115,171.58333333333334,115,174,115C176.41666666666666,115,178.83333333333334,115,181.25,115C183.66666666666666,115,186.08333333333334,115,188.5,115C190.91666666666666,115,193.33333333333334,115,195.75,115C198.16666666666669,115,200.58333333333334,115,203.00000000000003,115C205.41666666666669,115,207.83333333333331,115,210.24999999999997,115C212.66666666666666,115,215.08333333333331,115,217.5,115C219.91666666666666,115,222.33333333333334,115,224.75,115C227.16666666666666,115,229.58333333333334,115,232,115C234.41666666666666,115,236.83333333333334,115,239.25,115C241.66666666666669,115,244.08333333333334,115,246.50000000000003,115C248.91666666666669,115,251.33333333333331,115,253.74999999999997,115C256.16666666666663,115,258.5833333333333,115,261,115C263.4166666666667,115,265.8333333333333,115,268.25,115C270.6666666666667,115,273.0833333333333,115,275.5,115C277.9166666666667,115,280.3333333333333,115,282.75,115C285.1666666666667,115,287.5833333333333,115,290,115C292.4166666666667,115,294.8333333333333,115,297.25,115C299.6666666666667,115,302.0833333333333,115,304.5,115C306.9166666666667,115,309.3333333333333,115,311.75,115C314.1666666666667,115,316.5833333333333,115,319,115C321.4166666666667,115,323.8333333333333,115,326.25,115C328.6666666666667,115,331.0833333333333,115,333.5,115C335.9166666666667,115,338.3333333333333,115,340.75,115C343.1666666666667,115,345.5833333333333,115,348,115C350.4166666666667,115,352.8333333333333,115,355.25,115C357.6666666666667,115,360.0833333333333,115,362.5,115C364.9166666666667,115,367.3333333333333,115,369.75,115C372.1666666666667,115,374.5833333333333,115,377,115C379.4166666666667,115,381.8333333333333,115,384.25,115C386.6666666666667,115,389.0833333333333,115,391.5,115C393.9166666666667,115,396.33333333333337,115,398.75000000000006,115C401.16666666666674,115,403.58333333333337,115,406.00000000000006,115C408.4166666666667,115,410.8333333333333,115,413.24999999999994,115C415.66666666666663,115,418.08333333333326,115,420.49999999999994,115C422.91666666666663,115,425.3333333333333,115,427.75,115C430.1666666666667,115,432.5833333333333,115,435,115C437.4166666666667,115,439.8333333333333,115,442.25,115C444.6666666666667,115,447.0833333333333,115,449.5,115C451.9166666666667,115,454.3333333333333,115,456.75,115C459.1666666666667,115,461.5833333333333,115,464,115C466.4166666666667,115,468.8333333333333,115,471.25,115C473.6666666666667,115,476.0833333333333,115,478.5,115C480.9166666666667,115,483.33333333333337,115,485.75000000000006,115C488.16666666666674,115,490.58333333333337,115,493.00000000000006,115C495.4166666666667,115,497.8333333333333,115,500.24999999999994,115C502.66666666666663,115,505.08333333333326,115,507.49999999999994,115C509.91666666666663,115,512.3333333333333,115,514.75,115C517.1666666666666,115,519.5833333333334,115,522,115C524.4166666666666,115,526.8333333333334,115,529.25,115C531.6666666666666,115,534.0833333333334,115,536.5,115C538.9166666666666,115,541.3333333333334,115,543.75,115C546.1666666666666,115,548.5833333333334,115,551,115C553.4166666666666,115,555.8333333333334,115,558.25,115C560.6666666666666,115,563.0833333333334,115,565.5,115C567.9166666666666,115,570.3333333333334,115,572.75,115C575.1666666666666,115,577.5833333333334,115,580,115C582.4166666666666,115,584.8333333333334,115,587.25,115C589.6666666666666,115,592.0833333333334,115,594.5,115C596.9166666666666,115,599.3333333333334,115,601.75,115C604.1666666666666,115,606.5833333333334,115,609,115C611.4166666666666,115,613.8333333333334,115,616.25,115C618.6666666666666,115,621.0833333333334,115,623.5,115C625.9166666666666,115,628.3333333333334,115,630.75,115C633.1666666666666,115,635.5833333333334,115,638,115C640.4166666666666,115,642.8333333333334,115,645.25,115C647.6666666666666,115,650.0833333333334,115,652.5,115C654.9166666666666,115,657.3333333333334,115,659.75,115C662.1666666666666,115,664.5833333333334,115,667,115C669.4166666666666,115,671.8333333333334,115,674.25,115C676.6666666666666,115,679.0833333333334,115,681.5,115C683.9166666666666,115,686.3333333333334,115,688.75,115C691.1666666666666,115,693.5833333333334,115,696,115C698.4166666666666,115,700.8333333333334,115,703.25,115C705.6666666666666,115,708.0833333333334,115,710.5,115C712.9166666666666,115,715.3333333333334,115,717.75,115C720.1666666666666,115,722.5833333333334,115,725,115C727.4166666666666,115,729.8333333333334,115,732.25,115C734.6666666666666,115,737.0833333333334,115,739.5,115C741.9166666666666,115,744.3333333333334,115,746.75,115C749.1666666666666,115,751.5833333333334,115,754,115C756.4166666666666,115,758.8333333333334,115,761.25,115C763.6666666666666,115,766.0833333333334,115,768.5,115C770.9166666666666,115,773.3333333333334,115,775.75,115C778.1666666666666,115,780.5833333333334,115,783,115C785.4166666666667,115,787.8333333333334,115,790.2500000000001,115C792.6666666666667,115,795.0833333333335,115,797.5000000000001,115C799.9166666666667,115,802.3333333333335,115,804.7500000000001,115C807.1666666666667,115,809.5833333333335,115,812.0000000000001,115C814.4166666666667,115,816.8333333333333,115,819.2499999999999,115C821.6666666666665,115,824.0833333333333,115,826.4999999999999,115C828.9166666666665,115,831.3333333333333,115,833.7499999999999,115C836.1666666666665,115,838.5833333333333,115,840.9999999999999,115C843.4166666666666,115,845.8333333333333,115,848.25,115C850.6666666666666,115,853.0833333333334,115,855.5,115C857.9166666666666,115,860.3333333333334,115,862.75,115C865.1666666666666,115,867.5833333333334,115,870,115C872.4166666666666,115,874.8333333333334,115,877.25,115C879.6666666666666,115,882.0833333333334,115,884.5,115C886.9166666666666,115,889.3333333333334,115,891.75,115C894.1666666666666,115,896.5833333333334,115,899,115C901.4166666666666,115,903.8333333333334,115,906.25,115C908.6666666666666,115,911.0833333333334,115,913.5,115C915.9166666666666,115,918.3333333333334,115,920.75,115C923.1666666666666,115,925.5833333333334,115,928,115C930.4166666666666,115,932.8333333333334,115,935.25,115C937.6666666666666,115,940.0833333333334,115,942.5,115C944.9166666666666,115,947.3333333333334,115,949.75,115C952.1666666666666,115,954.5833333333334,115,957,115C959.4166666666666,115,961.8333333333334,115,964.25,115C966.6666666666667,115,969.0833333333334,115,971.5000000000001,115C973.9166666666667,115,976.3333333333335,115,978.7500000000001,115C981.1666666666667,115,983.5833333333335,115,986.0000000000001,115C988.4166666666667,115,990.8333333333335,115,993.2500000000001,115C995.6666666666667,115,998.0833333333333,115,1000.4999999999999,115C1002.9166666666665,115,1005.3333333333333,115,1007.7499999999999,115C1010.1666666666665,115,1012.5833333333333,115,1014.9999999999999,115C1017.4166666666665,115,1019.8333333333333,115,1022.2499999999999,115C1024.6666666666665,115,1027.0833333333333,115,1029.5,115C1031.9166666666667,115,1034.3333333333333,115,1036.75,115C1039.1666666666667,115,1041.5833333333333,115,1044,115C1046.4166666666667,115,1048.8333333333333,115,1051.25,115C1053.6666666666667,115,1056.0833333333333,115,1058.5,115C1060.9166666666667,115,1063.3333333333333,115,1065.75,115C1068.1666666666667,115,1070.5833333333333,115,1073,115C1075.4166666666667,115,1077.8333333333333,115,1080.25,115C1082.6666666666667,115,1085.0833333333333,115,1087.5,115C1089.9166666666667,115,1092.3333333333333,115,1094.75,115C1097.1666666666667,115,1099.5833333333333,115,1102,115C1104.4166666666667,115,1106.8333333333333,115,1109.25,115C1111.6666666666667,115,1114.0833333333333,115,1116.5,115C1118.9166666666667,115,1121.3333333333333,115,1123.75,115C1126.1666666666667,115,1128.5833333333333,115,1131,115C1133.4166666666667,115,1135.8333333333333,115,1138.25,115C1140.6666666666667,115,1143.0833333333333,115,1145.5,115C1147.9166666666667,115,1150.3333333333333,115,1152.75,115C1155.1666666666667,115,1157.5833333333333,115,1160,115C1162.4166666666667,115,1164.8333333333333,115,1167.25,115C1169.6666666666667,115,1172.0833333333333,115,1174.5,115C1176.9166666666667,115,1179.3333333333333,115,1181.75,115C1184.1666666666667,115,1186.5833333333333,115,1189,115C1191.4166666666667,115,1193.8333333333333,115,1196.25,115C1198.6666666666667,115,1201.0833333333333,115,1203.5,115C1205.9166666666667,115,1208.3333333333333,115,1210.75,115C1213.1666666666667,115,1215.5833333333333,115,1218,115C1220.4166666666667,115,1222.8333333333333,115,1225.25,115C1227.6666666666667,115,1230.0833333333333,115,1232.5,115C1234.9166666666667,115,1237.3333333333333,115,1239.75,115C1242.1666666666667,115,1244.5833333333333,115,1247,115C1249.4166666666667,115,1251.8333333333333,115,1254.25,115C1256.6666666666667,115,1259.0833333333333,115,1261.5,115C1263.9166666666667,115,1266.3333333333333,115,1268.75,115C1271.1666666666667,115,1273.5833333333333,115,1276,115C1278.4166666666667,115,1280.8333333333333,115,1283.25,115C1285.6666666666667,115,1288.0833333333333,115,1290.5,115C1292.9166666666667,115,1295.3333333333333,115,1297.75,115C1300.1666666666667,115,1302.5833333333333,115,1305,115C1307.4166666666667,115,1309.8333333333333,111.80555555555557,1312.25,110.20833333333334C1314.6666666666667,108.61111111111111,1317.0833333333333,107.01388888888889,1319.5,105.41666666666666C1321.9166666666667,103.81944444444443,1324.3333333333333,102.22222222222221,1326.75,100.625C1329.1666666666667,99.02777777777779,1331.5833333333333,97.43055555555557,1334,95.83333333333334C1336.4166666666667,94.23611111111111,1338.8333333333333,92.63888888888889,1341.25,91.04166666666666C1343.6666666666667,89.44444444444443,1346.0833333333333,87.84722222222223,1348.5,86.25C1350.9166666666667,84.65277777777777,1353.3333333333333,83.05555555555554,1355.75,81.45833333333333C1358.1666666666667,79.86111111111111,1360.5833333333333,78.26388888888889,1363,76.66666666666667C1365.4166666666667,75.06944444444446,1367.8333333333333,73.47222222222223,1370.25,71.875C1372.6666666666667,70.27777777777777,1375.0833333333333,68.68055555555554,1377.5,67.08333333333333C1379.9166666666667,65.48611111111111,1382.3333333333333,63.8888888888889,1384.75,62.29166666666668C1387.1666666666667,60.69444444444446,1389.5833333333333,59.09722222222222,1392,57.5C1394.4166666666667,55.90277777777778,1396.8333333333333,54.30555555555556,1399.25,52.708333333333336C1401.6666666666667,51.111111111111114,1404.0833333333333,49.513888888888886,1406.5,47.916666666666664C1408.9166666666667,46.31944444444444,1411.3333333333333,44.72222222222222,1413.75,43.125C1416.1666666666667,41.52777777777778,1418.5833333333333,39.93055555555556,1421,38.333333333333336C1423.4166666666667,36.736111111111114,1425.8333333333333,35.1388888888889,1428.25,33.54166666666668C1430.6666666666667,31.944444444444457,1433.0833333333333,30.34722222222222,1435.5,28.75C1437.9166666666667,27.15277777777778,1440.3333333333333,25.55555555555556,1442.75,23.95833333333334C1445.1666666666667,22.361111111111118,1447.5833333333333,20.76388888888889,1450,19.16666666666666" fill="transparent" stroke-linecap="round" stroke="#B6509E" stroke-width="2"></path><path class="visx-linepath" d="M0,113.72222222221512C2.4166666666666665,113.72103909464606,4.833333333333334,113.719855967077,7.25,113.71867283950617C9.666666666666666,113.71748971193534,12.083333333333334,113.71630658436214,14.5,113.71512345679012C16.916666666666668,113.7139403292181,19.333333333333332,113.7127572016461,21.75,113.71157407407408C24.166666666666668,113.71039094650206,26.583333333333332,113.70920781893004,29,113.70802469135802C31.416666666666668,113.706841563786,33.833333333333336,113.705658436214,36.25,113.70447530864197C38.666666666666664,113.70329218106995,41.083333333333336,113.70210905349795,43.5,113.70092592592593C45.91666666666667,113.69974279835391,48.333333333333336,113.69855967078189,50.75000000000001,113.69737654320987C53.16666666666667,113.69619341563785,55.583333333333336,113.69501028806584,58,113.69382716049383C60.416666666666664,113.6926440329218,62.833333333333336,113.6914609053498,65.25,113.69027777777778C67.66666666666667,113.68909465020576,70.08333333333333,113.68791152263375,72.5,113.68672839506173C74.91666666666667,113.68554526748972,77.33333333333333,113.68436213991771,79.75,113.68317901234569C82.16666666666667,113.68199588477367,84.58333333333333,113.68081275720165,87,113.67962962962963C89.41666666666667,113.67844650205761,91.83333333333333,113.67726337448559,94.25,113.67608024691357C96.66666666666667,113.67489711934155,99.08333333333334,113.67371399176955,101.50000000000001,113.67253086419753C103.91666666666667,113.6713477366255,106.33333333333334,113.6701646090535,108.75,113.66898148148148C111.16666666666667,113.66779835390946,113.58333333333333,113.66661522633746,116,113.66543209876544C118.41666666666667,113.66424897119342,120.83333333333334,113.66306584362141,123.25000000000001,113.66188271604939C125.66666666666667,113.66069958847737,128.08333333333334,113.65951646090535,130.5,113.65833333333333C132.91666666666666,113.65715020576131,135.33333333333334,113.6559670781893,137.75,113.65478395061729C140.16666666666666,113.65360082304527,142.58333333333334,113.65241769547325,145,113.65123456790123C147.41666666666666,113.65005144032921,149.83333333333334,113.6488683127572,152.25,113.64768518518518C154.66666666666666,113.64650205761316,157.08333333333334,113.64531893004116,159.5,113.64413580246914C161.91666666666666,113.64295267489712,164.33333333333334,113.64176954732511,166.75,113.64058641975309C169.16666666666666,113.63940329218107,171.58333333333334,113.63822016460905,174,113.63703703703703C176.41666666666666,113.63585390946501,178.83333333333334,113.634670781893,181.25,113.63348765432099C183.66666666666666,113.63230452674897,186.08333333333334,113.63112139917696,188.5,113.62993827160494C190.91666666666666,113.62875514403292,193.33333333333334,113.62757201646092,195.75,113.6263888888889C198.16666666666669,113.62520576131688,200.58333333333334,113.62402263374486,203.00000000000003,113.62283950617284C205.41666666666669,113.62165637860082,207.83333333333331,113.6204732510288,210.24999999999997,113.61929012345678C212.66666666666666,113.61810699588476,215.08333333333331,113.61692386831275,217.5,113.61574074074073C219.91666666666666,113.61455761316871,222.33333333333334,113.61337448559671,224.75,113.61219135802469C227.16666666666666,113.61100823045267,229.58333333333334,113.60982510288066,232,113.60864197530864C234.41666666666666,113.60745884773662,236.83333333333334,113.60627572016462,239.25,113.6050925925926C241.66666666666669,113.60390946502058,244.08333333333334,113.60272633744857,246.50000000000003,113.60154320987655C248.91666666666669,113.60036008230453,251.33333333333331,113.59917695473251,253.74999999999997,113.5979938271605C256.16666666666663,113.59681069958847,258.5833333333333,113.59562757201647,261,113.59444444444445C263.4166666666667,113.59326131687243,265.8333333333333,113.59207818930041,268.25,113.59089506172839C270.6666666666667,113.58971193415637,273.0833333333333,113.58852880658436,275.5,113.58734567901234C277.9166666666667,113.58616255144032,280.3333333333333,113.58497942386832,282.75,113.5837962962963C285.1666666666667,113.58261316872428,287.5833333333333,113.58143004115226,290,113.58024691358024C292.4166666666667,113.57906378600822,294.8333333333333,113.57788065843621,297.25,113.5766975308642C299.6666666666667,113.57551440329217,302.0833333333333,113.57433127572017,304.5,113.57314814814815C306.9166666666667,113.57196502057613,309.3333333333333,113.57078189300412,311.75,113.5695987654321C314.1666666666667,113.56841563786008,316.5833333333333,113.56723251028806,319,113.56604938271605C321.4166666666667,113.56486625514403,323.8333333333333,113.56368312757202,326.25,113.5625C328.6666666666667,113.56131687242798,331.0833333333333,113.56013374485596,333.5,113.55895061728394C335.9166666666667,113.55776748971192,338.3333333333333,113.55658436213992,340.75,113.5554012345679C343.1666666666667,113.55421810699588,345.5833333333333,113.55303497942387,348,113.55185185185185C350.4166666666667,113.55066872427983,352.8333333333333,113.54948559670783,355.25,113.5483024691358C357.6666666666667,113.54711934156379,360.0833333333333,113.54593621399178,362.5,113.54475308641976C364.9166666666667,113.54356995884774,367.3333333333333,113.54238683127573,369.75,113.54120370370372C372.1666666666667,113.5400205761317,374.5833333333333,113.53883744855968,377,113.53765432098766C379.4166666666667,113.53647119341564,381.8333333333333,113.53528806584362,384.25,113.5341049382716C386.6666666666667,113.53292181069958,389.0833333333333,113.53173868312757,391.5,113.53055555555555C393.9166666666667,113.52937242798353,396.33333333333337,113.52818930041153,398.75000000000006,113.5270061728395C401.16666666666674,113.52582304526749,403.58333333333337,113.52463991769548,406.00000000000006,113.52345679012346C408.4166666666667,113.52227366255144,410.8333333333333,113.52109053497942,413.24999999999994,113.5199074074074C415.66666666666663,113.51872427983538,418.08333333333326,113.51754115226338,420.49999999999994,113.51635802469136C422.91666666666663,113.51517489711934,425.3333333333333,113.51399176954733,427.75,113.51280864197531C430.1666666666667,113.51162551440329,432.5833333333333,113.51044238683129,435,113.50925925925927C437.4166666666667,113.50807613168725,439.8333333333333,113.50689300411523,442.25,113.50570987654321C444.6666666666667,113.50452674897119,447.0833333333333,113.50334362139918,449.5,113.50216049382716C451.9166666666667,113.50097736625514,454.3333333333333,113.49979423868312,456.75,113.4986111111111C459.1666666666667,113.49742798353908,461.5833333333333,113.49624485596708,464,113.49506172839506C466.4166666666667,113.49387860082304,468.8333333333333,113.49269547325103,471.25,113.49151234567901C473.6666666666667,113.490329218107,476.0833333333333,113.48914609053499,478.5,113.48796296296297C480.9166666666667,113.48677983539095,483.33333333333337,113.48559670781894,485.75000000000006,113.48441358024692C488.16666666666674,113.4832304526749,490.58333333333337,113.48204732510288,493.00000000000006,113.48086419753086C495.4166666666667,113.47968106995884,497.8333333333333,113.47849794238682,500.24999999999994,113.4773148148148C502.66666666666663,113.47613168724278,505.08333333333326,113.47494855967078,507.49999999999994,113.47376543209876C509.91666666666663,113.47258230452674,512.3333333333333,113.47139917695473,514.75,113.47021604938271C517.1666666666666,113.4690329218107,519.5833333333334,113.46784979423869,522,113.46666666666667C524.4166666666666,113.46548353909465,526.8333333333334,113.46430041152264,529.25,113.46311728395062C531.6666666666666,113.4619341563786,534.0833333333334,113.46075102880658,536.5,113.45956790123456C538.9166666666666,113.45838477366254,541.3333333333334,113.45720164609054,543.75,113.45601851851852C546.1666666666666,113.4548353909465,548.5833333333334,113.4536522633745,551,113.45246913580247C553.4166666666666,113.45128600823045,555.8333333333334,113.45010288065843,558.25,113.44891975308641C560.6666666666666,113.4477366255144,563.0833333333334,113.44655349794239,565.5,113.44537037037037C567.9166666666666,113.44418724279835,570.3333333333334,113.44300411522634,572.75,113.44182098765432C575.1666666666666,113.4406378600823,577.5833333333334,113.43945473251028,580,113.43827160493827C582.4166666666666,113.43708847736625,584.8333333333334,113.43590534979424,587.25,113.43472222222222C589.6666666666666,113.4335390946502,592.0833333333334,113.4323559670782,594.5,113.43117283950617C596.9166666666666,113.42998971193416,599.3333333333334,113.42880658436215,601.75,113.42762345679013C604.1666666666666,113.42644032921811,606.5833333333334,113.4252572016461,609,113.42407407407408C611.4166666666666,113.42289094650206,613.8333333333334,113.42170781893005,616.25,113.42052469135803C618.6666666666666,113.419341563786,621.0833333333334,113.41815843621399,623.5,113.41697530864197C625.9166666666666,113.41579218106995,628.3333333333334,113.41460905349794,630.75,113.41342592592592C633.1666666666666,113.4122427983539,635.5833333333334,113.4110596707819,638,113.40987654320988C640.4166666666666,113.40869341563786,642.8333333333334,113.40751028806585,645.25,113.40632716049383C647.6666666666666,113.40514403292181,650.0833333333334,113.4039609053498,652.5,113.40277777777779C654.9166666666666,113.40159465020577,657.3333333333334,113.40041152263375,659.75,113.39922839506173C662.1666666666666,113.3980452674897,664.5833333333334,113.3968621399177,667,113.39567901234568C669.4166666666666,113.39449588477366,671.8333333333334,113.39331275720166,674.25,113.39212962962964C676.6666666666666,113.39094650205762,679.0833333333334,113.3897633744856,681.5,113.38858024691358C683.9166666666666,113.38739711934156,686.3333333333334,113.38621399176955,688.75,113.38503086419753C691.1666666666666,113.38384773662551,693.5833333333334,113.38266460905349,696,113.38148148148147C698.4166666666666,113.38029835390945,700.8333333333334,113.37911522633745,703.25,113.37793209876543C705.6666666666666,113.37674897119341,708.0833333333334,113.3755658436214,710.5,113.37438271604938C712.9166666666666,113.37319958847736,715.3333333333334,113.37201646090536,717.75,113.37083333333334C720.1666666666666,113.36965020576132,722.5833333333334,113.36846707818931,725,113.36728395061729C727.4166666666666,113.36610082304527,729.8333333333334,113.36491769547327,732.25,113.36373456790125C734.6666666666666,113.36255144032923,737.0833333333334,113.3613683127572,739.5,113.36018518518517C741.9166666666666,113.35900205761315,744.3333333333334,113.35781893004115,746.75,113.35663580246913C749.1666666666666,113.35545267489711,751.5833333333334,113.3542695473251,754,113.35308641975308C756.4166666666666,113.35190329218106,758.8333333333334,113.35072016460906,761.25,113.34953703703704C763.6666666666666,113.34835390946502,766.0833333333334,113.34717078189301,768.5,113.345987654321C770.9166666666666,113.34480452674897,773.3333333333334,113.34362139917697,775.75,113.34243827160495C778.1666666666666,113.34125514403293,780.5833333333334,113.34007201646091,783,113.33888888888889C785.4166666666667,113.33770576131687,787.8333333333334,113.33652263374486,790.2500000000001,113.33533950617284C792.6666666666667,113.33415637860082,795.0833333333335,113.3329732510288,797.5000000000001,113.33179012345678C799.9166666666667,113.33060699588476,802.3333333333335,113.32942386831276,804.7500000000001,113.32824074074074C807.1666666666667,113.32705761316872,809.5833333333335,113.32587448559671,812.0000000000001,113.3246913580247C814.4166666666667,113.32350823045267,816.8333333333333,113.32232510288065,819.2499999999999,113.32114197530863C821.6666666666665,113.31995884773661,824.0833333333333,113.31877572016461,826.4999999999999,113.31759259259259C828.9166666666665,113.31640946502057,831.3333333333333,113.31522633744856,833.7499999999999,113.31404320987654C836.1666666666665,113.31286008230452,838.5833333333333,113.31167695473252,840.9999999999999,113.3104938271605C843.4166666666666,113.30931069958848,845.8333333333333,113.30812757201647,848.25,113.30694444444445C850.6666666666666,113.30576131687243,853.0833333333334,113.30457818930041,855.5,113.3033950617284C857.9166666666666,113.30221193415638,860.3333333333334,113.30102880658436,862.75,113.29984567901234C865.1666666666666,113.29866255144032,867.5833333333334,113.29747942386831,870,113.29629629629629C872.4166666666666,113.29511316872427,874.8333333333334,113.29393004115227,877.25,113.29274691358025C879.6666666666666,113.29156378600823,882.0833333333334,113.29038065843622,884.5,113.2891975308642C886.9166666666666,113.28801440329218,889.3333333333334,113.28683127572017,891.75,113.28564814814816C894.1666666666666,113.28446502057614,896.5833333333334,113.28328189300412,899,113.2820987654321C901.4166666666666,113.28091563786008,903.8333333333334,113.27973251028807,906.25,113.27854938271605C908.6666666666666,113.27736625514403,911.0833333333334,113.27618312757201,913.5,113.27499999999999C915.9166666666666,113.27381687242797,918.3333333333334,113.27263374485597,920.75,113.27145061728395C923.1666666666666,113.27026748971193,925.5833333333334,113.26908436213992,928,113.2679012345679C930.4166666666666,113.26671810699588,932.8333333333334,113.26553497942388,935.25,113.26435185185186C937.6666666666666,113.26316872427984,940.0833333333334,113.26198559670782,942.5,113.2608024691358C944.9166666666666,113.25961934156378,947.3333333333334,113.25843621399177,949.75,113.25725308641975C952.1666666666666,113.25606995884773,954.5833333333334,113.25488683127573,957,113.2537037037037C959.4166666666666,113.25252057613169,961.8333333333334,113.25133744855968,964.25,113.25015432098766C966.6666666666667,113.24897119341564,969.0833333333334,113.24778806584362,971.5000000000001,113.2466049382716C973.9166666666667,113.24542181069958,976.3333333333335,113.24423868312758,978.7500000000001,113.24305555555556C981.1666666666667,113.24187242798354,983.5833333333335,113.24068930041152,986.0000000000001,113.2395061728395C988.4166666666667,113.23832304526748,990.8333333333335,113.23713991769547,993.2500000000001,113.23595679012345C995.6666666666667,113.23477366255143,998.0833333333333,113.23359053497943,1000.4999999999999,113.23240740740741C1002.9166666666665,113.23122427983539,1005.3333333333333,113.23004115226338,1007.7499999999999,113.22885802469136C1010.1666666666665,113.22767489711934,1012.5833333333333,113.22649176954734,1014.9999999999999,113.22530864197532C1017.4166666666665,113.2241255144033,1019.8333333333333,113.22294238683128,1022.2499999999999,113.22175925925926C1024.6666666666665,113.22057613168724,1027.0833333333333,113.21939300411523,1029.5,113.21820987654321C1031.9166666666667,113.2170267489712,1034.3333333333333,113.21584362139917,1036.75,113.21466049382715C1039.1666666666667,113.21347736625513,1041.5833333333333,113.21229423868313,1044,113.21111111111111C1046.4166666666667,113.20992798353909,1048.8333333333333,113.20874485596708,1051.25,113.20756172839506C1053.6666666666667,113.20637860082304,1056.0833333333333,113.20519547325104,1058.5,113.20401234567902C1060.9166666666667,113.202829218107,1063.3333333333333,113.20164609053498,1065.75,113.20046296296296C1068.1666666666667,113.19927983539094,1070.5833333333333,113.19809670781893,1073,113.19691358024691C1075.4166666666667,113.1957304526749,1077.8333333333333,113.19454732510289,1080.25,113.19336419753087C1082.6666666666667,113.19218106995885,1085.0833333333333,113.19099794238684,1087.5,113.18981481481482C1089.9166666666667,113.1886316872428,1092.3333333333333,113.18744855967078,1094.75,113.18626543209876C1097.1666666666667,113.18508230452674,1099.5833333333333,113.18389917695472,1102,113.1827160493827C1104.4166666666667,113.18153292181069,1106.8333333333333,113.18034979423868,1109.25,113.17916666666666C1111.6666666666667,113.17798353909464,1114.0833333333333,113.17680041152263,1116.5,113.17561728395061C1118.9166666666667,113.1744341563786,1121.3333333333333,113.17325102880659,1123.75,113.17206790123457C1126.1666666666667,113.17088477366255,1128.5833333333333,113.16970164609054,1131,113.16851851851852C1133.4166666666667,113.1673353909465,1135.8333333333333,113.1661522633745,1138.25,113.16496913580248C1140.6666666666667,113.16378600823046,1143.0833333333333,113.16260288065844,1145.5,113.16141975308642C1147.9166666666667,113.1602366255144,1150.3333333333333,113.15905349794238,1152.75,113.15787037037036C1155.1666666666667,113.15668724279834,1157.5833333333333,113.15550411522634,1160,113.15432098765432C1162.4166666666667,113.1531378600823,1164.8333333333333,113.15195473251029,1167.25,113.15077160493827C1169.6666666666667,113.14958847736625,1172.0833333333333,113.14840534979425,1174.5,113.14722222222223C1176.9166666666667,113.1460390946502,1179.3333333333333,113.14485596707819,1181.75,113.14367283950617C1184.1666666666667,113.14248971193415,1186.5833333333333,113.14130658436214,1189,113.14012345679012C1191.4166666666667,113.1389403292181,1193.8333333333333,113.1377572016461,1196.25,113.13657407407408C1198.6666666666667,113.13539094650206,1201.0833333333333,113.13420781893005,1203.5,113.13302469135803C1205.9166666666667,113.13184156378601,1208.3333333333333,113.13065843621399,1210.75,113.12947530864197C1213.1666666666667,113.12829218106995,1215.5833333333333,113.12710905349795,1218,113.12592592592593C1220.4166666666667,113.1247427983539,1222.8333333333333,113.12355967078189,1225.25,113.12237654320987C1227.6666666666667,113.12119341563785,1230.0833333333333,113.12001028806584,1232.5,113.11882716049382C1234.9166666666667,113.1176440329218,1237.3333333333333,113.1164609053498,1239.75,113.11527777777778C1242.1666666666667,113.11409465020576,1244.5833333333333,113.11291152263375,1247,113.11172839506173C1249.4166666666667,113.11054526748971,1251.8333333333333,113.1093621399177,1254.25,113.10817901234569C1256.6666666666667,113.10699588477367,1259.0833333333333,113.10581275720166,1261.5,113.10462962962964C1263.9166666666667,113.10344650205762,1266.3333333333333,113.1022633744856,1268.75,113.10108024691358C1271.1666666666667,113.09989711934156,1273.5833333333333,113.09871399176954,1276,113.09753086419752C1278.4166666666667,113.0963477366255,1280.8333333333333,113.0951646090535,1283.25,113.09398148148148C1285.6666666666667,113.09279835390946,1288.0833333333333,113.09161522633745,1290.5,113.09043209876543C1292.9166666666667,113.08924897119341,1295.3333333333333,113.08806584362141,1297.75,113.08688271604939C1300.1666666666667,113.08569958847737,1302.5833333333333,113.08569958847737,1305,113.08333333333333C1307.4166666666667,113.08096707818929,1309.8333333333333,109.88888888888889,1312.25,108.29166666666667C1314.6666666666667,106.69444444444446,1317.0833333333333,105.09722222222223,1319.5,103.5C1321.9166666666667,101.90277777777777,1324.3333333333333,100.30555555555557,1326.75,98.70833333333334C1329.1666666666667,97.11111111111111,1331.5833333333333,95.5138888888889,1334,93.91666666666667C1336.4166666666667,92.31944444444444,1338.8333333333333,90.72222222222223,1341.25,89.125C1343.6666666666667,87.52777777777777,1346.0833333333333,85.93055555555557,1348.5,84.33333333333334C1350.9166666666667,82.73611111111111,1353.3333333333333,81.1388888888889,1355.75,79.54166666666667C1358.1666666666667,77.94444444444444,1360.5833333333333,76.34722222222223,1363,74.75C1365.4166666666667,73.15277777777777,1367.8333333333333,71.55555555555557,1370.25,69.95833333333334C1372.6666666666667,68.36111111111111,1375.0833333333333,66.7638888888889,1377.5,65.16666666666667C1379.9166666666667,63.56944444444445,1382.3333333333333,61.97222222222222,1384.75,60.375C1387.1666666666667,58.77777777777778,1389.5833333333333,57.18055555555555,1392,55.58333333333333C1394.4166666666667,53.98611111111111,1396.8333333333333,52.3888888888889,1399.25,50.79166666666668C1401.6666666666667,49.19444444444446,1404.0833333333333,47.59722222222222,1406.5,46C1408.9166666666667,44.40277777777778,1411.3333333333333,42.80555555555555,1413.75,41.20833333333333C1416.1666666666667,39.61111111111111,1418.5833333333333,38.013888888888886,1421,36.416666666666664C1423.4166666666667,34.81944444444444,1425.8333333333333,33.22222222222223,1428.25,31.625000000000004C1430.6666666666667,30.027777777777782,1433.0833333333333,28.43055555555555,1435.5,26.83333333333333C1437.9166666666667,25.236111111111107,1440.3333333333333,23.638888888888886,1442.75,22.041666666666664C1445.1666666666667,20.444444444444443,1447.5833333333333,18.847222222222225,1450,17.250000000000004" fill="transparent" stroke-linecap="round" stroke="#E7C6DF" stroke-width="2"></path><g class="visx-group visx-axis visx-axis-bottom" transform="translate(0, 115)"><g class="visx-group visx-axis-tick" transform="translate(0, 0)"><line class="visx-line" x1="0" y1="0" x2="0" y2="8" fill="transparent" shape-rendering="crispEdges" stroke="#000" stroke-width="0" stroke-linecap="square"></line><svg x="0" y="0" font-size="10" style="overflow:visible"><text transform="" x="0" y="18" fill="#000" font-size="10" text-anchor="middle"><tspan x="0" dy="0em">0%</tspan></text></svg></g><g class="visx-group visx-axis-tick" transform="translate(0, 0)"><line class="visx-line" x1="362.5" y1="0" x2="362.5" y2="8" fill="transparent" shape-rendering="crispEdges" stroke="#000" stroke-width="0" stroke-linecap="square"></line><svg x="0" y="0" font-size="10" style="overflow:visible"><text transform="" x="362.5" y="18" fill="#000" font-size="10" text-anchor="middle"><tspan x="362.5" dy="0em">25%</tspan></text></svg></g><g class="visx-group visx-axis-tick" transform="translate(0, 0)"><line class="visx-line" x1="725" y1="0" x2="725" y2="8" fill="transparent" shape-rendering="crispEdges" stroke="#000" stroke-width="0" stroke-linecap="square"></line><svg x="0" y="0" font-size="10" style="overflow:visible"><text transform="" x="725" y="18" fill="#000" font-size="10" text-anchor="middle"><tspan x="725" dy="0em">50%</tspan></text></svg></g><g class="visx-group visx-axis-tick" transform="translate(0, 0)"><line class="visx-line" x1="1087.5" y1="0" x2="1087.5" y2="8" fill="transparent" shape-rendering="crispEdges" stroke="#000" stroke-width="0" stroke-linecap="square"></line><svg x="0" y="0" font-size="10" style="overflow:visible"><text transform="" x="1087.5" y="18" fill="#000" font-size="10" text-anchor="middle"><tspan x="1087.5" dy="0em">75%</tspan></text></svg></g><g class="visx-group visx-axis-tick" transform="translate(0, 0)"><line class="visx-line" x1="1450" y1="0" x2="1450" y2="8" fill="transparent" shape-rendering="crispEdges" stroke="#000" stroke-width="0" stroke-linecap="square"></line><svg x="0" y="0" font-size="10" style="overflow:visible"><text transform="" x="1450" y="18" fill="#000" font-size="10" text-anchor="middle"><tspan x="1450" dy="0em">100%</tspan></text></svg></g><line class="visx-line visx-axis-line" x1="0.5" y1="0" x2="1450.5" y2="0" fill="transparent" shape-rendering="crispEdges" stroke="#222" stroke-width="0"></line></g><g class="visx-group visx-axis visx-axis-left" transform="translate(0, 0)"><g class="visx-group visx-axis-tick" transform="translate(0, 0)"><line class="visx-line" x1="0" y1="115" x2="-8" y2="115" fill="transparent" shape-rendering="crispEdges" stroke="#222" stroke-width="0" stroke-linecap="square"></line><svg x="-30" y="0" font-size="8" style="overflow:visible"><text transform="" x="-8" y="115" fill="#000" font-size="8" text-anchor="start"><tspan x="-8" dy="0em">0%</tspan></text></svg></g><g class="visx-group visx-axis-tick" transform="translate(0, 0)"><line class="visx-line" x1="0" y1="51.11111111111111" x2="-8" y2="51.11111111111111" fill="transparent" shape-rendering="crispEdges" stroke="#222" stroke-width="0" stroke-linecap="square"></line><svg x="-30" y="0" font-size="8" style="overflow:visible"><text transform="" x="-8" y="51.11111111111111" fill="#000" font-size="8" text-anchor="start"><tspan x="-8" dy="0em">50%</tspan></text></svg></g><line class="visx-line visx-axis-line" x1="0" y1="115.5" x2="0" y2="0.5" fill="transparent" shape-rendering="crispEdges" stroke="#222" stroke-width="0"></line></g><rect class="visx-bar" width="1450" height="115" fill="transparent"></rect><line class="visx-line" x1="1305" y1="28" x2="1305" y2="115" fill="transparent" shape-rendering="crispEdges" stroke="#0062D2" stroke-width="1" pointer-events="none" stroke-dasharray="5,2"></line><svg x="0" y="0" font-size="10px" style="overflow:visible"><text transform="" x="1305" y="20" font-size="10px" fill="#fff" stroke="#fff" stroke-width="0.8em" text-anchor="middle"><tspan x="1305" dy="0.355em">Optimal 90%</tspan></text></svg><svg x="0" y="0" font-size="10px" style="overflow:visible"><text transform="" x="1305" y="20" font-size="10px" fill="#62677B" text-anchor="middle"><tspan x="1305" dy="0.355em">Optimal 90%</tspan></text></svg></g></svg>